<?xml version="1.0" encoding="iso-8859-1"?>
<!-- Generator: Adobe Illustrator 24.3.0, SVG Export Plug-In . SVG Version: 6.00 Build 0)  -->
<svg version="1.1" xmlns="http://www.w3.org/2000/svg" xmlns:xlink="http://www.w3.org/1999/xlink" x="0px" y="0px"
	 viewBox="0 0 512 512" style="enable-background:new 0 0 512 512;" xml:space="preserve">
<g id="_x32_04_x2C__Computing_x2C__computing_share_x2C__connectivity_x2C__network_x2C__share">
	<g>
		<g>
			<linearGradient id="SVGID_1_" gradientUnits="userSpaceOnUse" x1="224.5" y1="254" x2="288.5" y2="254">
				<stop  offset="0" style="stop-color:#A9E1FF"/>
				<stop  offset="1" style="stop-color:#1593FF"/>
			</linearGradient>
			<ellipse style="fill:url(#SVGID_1_);" cx="256.5" cy="254" rx="32" ry="33"/>
			<linearGradient id="SVGID_2_" gradientUnits="userSpaceOnUse" x1="224.5" y1="247.2871" x2="287.7559" y2="247.2871">
				<stop  offset="0" style="stop-color:#1593FF"/>
				<stop  offset="1" style="stop-color:#A9E1FF"/>
			</linearGradient>
			<path style="fill:url(#SVGID_2_);" d="M229.999,266.51c0-18.229,14.33-33,32-33c10.564,0,19.929,5.281,25.757,13.421
				C284.617,232.102,271.816,221,256.5,221c-17.67,0-32,14.77-32,33c0,7.328,2.321,14.098,6.242,19.574
				C230.26,271.297,229.999,268.935,229.999,266.51z"/>
			<linearGradient id="SVGID_3_" gradientUnits="userSpaceOnUse" x1="228.5" y1="462" x2="286.5" y2="462">
				<stop  offset="0" style="stop-color:#A9E1FF"/>
				<stop  offset="1" style="stop-color:#1593FF"/>
			</linearGradient>
			<path style="fill:url(#SVGID_3_);" d="M258.44,433.03c15.09,0.47,27.279,12.48,28.02,27.5c0.03,0.49,0.04,0.98,0.04,1.47
				c0,16.021-12.98,29-29,29c-16.02,0-29-12.979-29-29c0-0.21,0.01-0.42,0.02-0.63c0.33-15.72,13.17-28.37,28.98-28.37
				C257.81,433,258.13,433.011,258.44,433.03z"/>
			<linearGradient id="SVGID_4_" gradientUnits="userSpaceOnUse" x1="228.5" y1="458.8257" x2="283.8428" y2="458.8257">
				<stop  offset="0" style="stop-color:#1593FF"/>
				<stop  offset="1" style="stop-color:#A9E1FF"/>
			</linearGradient>
			<path style="fill:url(#SVGID_4_);" d="M236.73,472.5c0-0.21,0.01-0.42,0.02-0.63c0.33-15.72,13.17-28.37,28.98-28.37
				c0.31,0,0.63,0.011,0.94,0.03c6.487,0.202,12.435,2.542,17.172,6.332c-4.469-9.683-14.124-16.481-25.402-16.832
				c-0.311-0.02-0.631-0.03-0.94-0.03c-15.81,0-28.65,12.65-28.98,28.37c-0.01,0.21-0.02,0.42-0.02,0.63
				c0,9.17,4.257,17.338,10.898,22.651C237.69,480.955,236.73,476.841,236.73,472.5z"/>
			<linearGradient id="SVGID_5_" gradientUnits="userSpaceOnUse" x1="373.7296" y1="400.6043" x2="431.7273" y2="400.6043">
				<stop  offset="0" style="stop-color:#A9E1FF"/>
				<stop  offset="1" style="stop-color:#1593FF"/>
			</linearGradient>
			<path style="fill:url(#SVGID_5_);" d="M382.22,380.101c10.641-10.641,27.49-11.28,38.88-1.931c0.73,0.601,1.44,1.24,2.131,1.931
				c11.329,11.319,11.329,29.68,0,41.01c-11.32,11.32-29.69,11.32-41.011,0c-0.47-0.47-0.91-0.95-1.33-1.441
				C370.92,408.28,371.36,390.96,382.22,380.101z"/>
			<linearGradient id="SVGID_6_" gradientUnits="userSpaceOnUse" x1="373.7296" y1="397.4397" x2="429.0684" y2="397.4397">
				<stop  offset="0" style="stop-color:#1593FF"/>
				<stop  offset="1" style="stop-color:#A9E1FF"/>
			</linearGradient>
			<path style="fill:url(#SVGID_6_);" d="M390.457,390.601c10.559-10.558,27.227-11.265,38.611-2.141
				c-1.397-3.028-3.342-5.865-5.838-8.359c-0.69-0.69-1.4-1.33-2.131-1.931c-11.39-9.35-28.239-8.71-38.88,1.931
				c-10.859,10.859-11.3,28.18-1.33,39.569c0.42,0.49,0.86,0.971,1.33,1.441c0.775,0.775,1.586,1.492,2.423,2.161
				C379.684,412.555,381.619,399.439,390.457,390.601z"/>
			<linearGradient id="SVGID_7_" gradientUnits="userSpaceOnUse" x1="433" y1="254.5" x2="491" y2="254.5">
				<stop  offset="0" style="stop-color:#A9E1FF"/>
				<stop  offset="1" style="stop-color:#1593FF"/>
			</linearGradient>
			<path style="fill:url(#SVGID_7_);" d="M462,225.5c16.02,0,29,12.98,29,29c0,16.021-12.98,29-29,29c-1.07,0-2.13-0.06-3.17-0.18
				c-13.64-1.47-24.45-12.43-25.71-26.13c-0.08-0.891-0.12-1.78-0.12-2.69c0-14.71,10.95-26.85,25.15-28.74
				C459.41,225.59,460.69,225.5,462,225.5z"/>
			<linearGradient id="SVGID_8_" gradientUnits="userSpaceOnUse" x1="433" y1="250.0273" x2="489.8867" y2="250.0273">
				<stop  offset="0" style="stop-color:#1593FF"/>
				<stop  offset="1" style="stop-color:#A9E1FF"/>
			</linearGradient>
			<path style="fill:url(#SVGID_8_);" d="M440.085,269.309c-0.08-0.891-0.12-1.78-0.12-2.689c0-14.711,10.95-26.851,25.15-28.741
				c1.26-0.17,2.54-0.26,3.85-0.26c8.226,0,15.645,3.429,20.922,8.928C486.43,234.396,475.26,225.5,462,225.5
				c-1.31,0-2.59,0.09-3.85,0.26C443.95,227.65,433,239.79,433,254.5c0,0.91,0.04,1.8,0.12,2.69
				c0.617,6.714,3.538,12.761,7.952,17.364C440.591,272.862,440.251,271.111,440.085,269.309z"/>
			<linearGradient id="SVGID_9_" gradientUnits="userSpaceOnUse" x1="371.6101" y1="109.2719" x2="429.5999" y2="109.2719">
				<stop  offset="0" style="stop-color:#A9E1FF"/>
				<stop  offset="1" style="stop-color:#1593FF"/>
			</linearGradient>
			<path style="fill:url(#SVGID_9_);" d="M421.11,88.771c11.319,11.319,11.319,29.689,0,41.01c-0.87,0.87-1.79,1.67-2.73,2.399
				c-11.38,8.851-27.83,8.061-38.28-2.399c-10.38-10.38-11.239-26.67-2.59-38.04c0.78-1.03,1.641-2.03,2.59-2.97
				C391.42,77.44,409.78,77.44,421.11,88.771z"/>
			<linearGradient id="SVGID_10_" gradientUnits="userSpaceOnUse" x1="371.6101" y1="106.1672" x2="427.1572" y2="106.1672">
				<stop  offset="0" style="stop-color:#1593FF"/>
				<stop  offset="1" style="stop-color:#A9E1FF"/>
			</linearGradient>
			<path style="fill:url(#SVGID_10_);" d="M386.176,102.907c0.78-1.03,1.641-2.03,2.59-2.97
				c10.485-10.495,27.007-11.261,38.392-2.314c-1.408-3.212-3.418-6.224-6.047-8.853c-11.33-11.33-29.69-11.33-41.011,0
				c-0.949,0.939-1.81,1.939-2.59,2.97c-8.649,11.37-7.79,27.66,2.59,38.04c0.828,0.828,1.705,1.574,2.603,2.281
				C378.57,122.602,379.725,111.387,386.176,102.907z"/>
			<linearGradient id="SVGID_11_" gradientUnits="userSpaceOnUse" x1="225.5" y1="50" x2="283.5" y2="50">
				<stop  offset="0" style="stop-color:#A9E1FF"/>
				<stop  offset="1" style="stop-color:#1593FF"/>
			</linearGradient>
			<path style="fill:url(#SVGID_11_);" d="M283.5,50c0,1.021-0.05,2.03-0.16,3.021C281.83,67.62,269.5,79,254.5,79
				c-0.64,0-1.27-0.02-1.89-0.07c-14.13-0.899-25.5-11.93-26.95-25.909c-0.11-0.99-0.16-2-0.16-3.021c0-16.02,12.98-29,29-29
				C270.52,21,283.5,33.98,283.5,50z"/>
			<linearGradient id="SVGID_12_" gradientUnits="userSpaceOnUse" x1="225.5" y1="45.6811" x2="282.6357" y2="45.6811">
				<stop  offset="0" style="stop-color:#1593FF"/>
				<stop  offset="1" style="stop-color:#A9E1FF"/>
			</linearGradient>
			<path style="fill:url(#SVGID_12_);" d="M233.159,66.354c-0.11-0.99-0.16-2-0.16-3.02c0-16.021,12.98-29,29-29
				c8.077,0,15.379,3.303,20.637,8.628C279.491,30.346,268.092,21,254.5,21c-16.02,0-29,12.98-29,29c0,1.021,0.05,2.03,0.16,3.021
				c0.698,6.734,3.703,12.779,8.205,17.342C233.54,69.059,233.301,67.721,233.159,66.354z"/>
			<linearGradient id="SVGID_13_" gradientUnits="userSpaceOnUse" x1="80.2724" y1="111.3939" x2="138.2747" y2="111.3939">
				<stop  offset="0" style="stop-color:#A9E1FF"/>
				<stop  offset="1" style="stop-color:#1593FF"/>
			</linearGradient>
			<path style="fill:url(#SVGID_13_);" d="M130.96,92.15c10.13,11.38,9.74,28.84-1.18,39.75c-10.93,10.939-28.42,11.31-39.81,1.13
				c-0.41-0.36-0.81-0.74-1.2-1.13c-11.33-11.32-11.33-29.681,0-41.011c11.32-11.329,29.69-11.329,41.01,0
				C130.19,91.3,130.58,91.72,130.96,92.15z"/>
			<linearGradient id="SVGID_14_" gradientUnits="userSpaceOnUse" x1="80.2724" y1="107.7462" x2="136.8237" y2="107.7462">
				<stop  offset="0" style="stop-color:#1593FF"/>
				<stop  offset="1" style="stop-color:#A9E1FF"/>
			</linearGradient>
			<path style="fill:url(#SVGID_14_);" d="M97.103,103.557c10.9-10.909,28.336-11.309,39.721-1.207
				c-1.204-3.673-3.154-7.155-5.864-10.199c-0.38-0.431-0.77-0.851-1.18-1.261c-11.32-11.329-29.69-11.329-41.01,0
				c-11.33,11.33-11.33,29.69,0,41.011c0.39,0.39,0.79,0.77,1.2,1.13c0.027,0.023,0.055,0.045,0.082,0.069
				C86.763,123.047,89.107,111.553,97.103,103.557z"/>
			<linearGradient id="SVGID_15_" gradientUnits="userSpaceOnUse" x1="21" y1="257.5" x2="79" y2="257.5">
				<stop  offset="0" style="stop-color:#A9E1FF"/>
				<stop  offset="1" style="stop-color:#1593FF"/>
			</linearGradient>
			<path style="fill:url(#SVGID_15_);" d="M50.47,228.51c13.59,0.221,24.91,9.771,27.8,22.54c0.48,2.07,0.73,4.23,0.73,6.45
				c0,15.81-12.66,28.66-28.39,28.98c-0.2,0.01-0.41,0.02-0.61,0.02c-16.02,0-29-12.979-29-29c0-16.02,12.98-29,29-29
				C50.16,228.5,50.31,228.51,50.47,228.51z"/>
			<linearGradient id="SVGID_16_" gradientUnits="userSpaceOnUse" x1="22.4834" y1="253.8203" x2="79" y2="253.8203">
				<stop  offset="0" style="stop-color:#1593FF"/>
				<stop  offset="1" style="stop-color:#A9E1FF"/>
			</linearGradient>
			<path style="fill:url(#SVGID_16_);" d="M78.27,251.05c-2.89-12.77-14.21-22.319-27.8-22.54c-0.16,0-0.31-0.01-0.47-0.01
				c-12.818,0-23.683,8.314-27.517,19.843C27.608,243.777,34.359,241,41.765,241c0.16,0,0.31,0.01,0.47,0.01
				c13.59,0.221,24.91,9.771,27.8,22.541c0.48,2.069,0.73,4.229,0.73,6.449c0,3.195-0.525,6.266-1.48,9.141
				C75.242,273.832,79,266.107,79,257.5C79,255.28,78.75,253.12,78.27,251.05z"/>
			<linearGradient id="SVGID_17_" gradientUnits="userSpaceOnUse" x1="82.3999" y1="402.7261" x2="140.3936" y2="402.7261">
				<stop  offset="0" style="stop-color:#A9E1FF"/>
				<stop  offset="1" style="stop-color:#1593FF"/>
			</linearGradient>
			<path style="fill:url(#SVGID_17_);" d="M131.9,382.221c11.2,11.189,11.32,29.26,0.38,40.609c-0.12,0.13-0.25,0.27-0.38,0.4
				c-11.32,11.33-29.68,11.33-41.01,0c-11.32-11.33-11.32-29.69,0-41.01c0.01-0.011,0.02-0.021,0.03-0.021
				C102.24,370.891,120.58,370.9,131.9,382.221z"/>
			<linearGradient id="SVGID_18_" gradientUnits="userSpaceOnUse" x1="82.4068" y1="392.0179" x2="140.3887" y2="392.0179">
				<stop  offset="0" style="stop-color:#1593FF"/>
				<stop  offset="1" style="stop-color:#A9E1FF"/>
			</linearGradient>
			<path style="fill:url(#SVGID_18_);" d="M90.867,397.323c0.01-0.011,0.02-0.021,0.03-0.021c11.32-11.31,29.66-11.3,40.98,0.021
				c3.735,3.731,6.231,8.23,7.502,12.988c2.624-9.694,0.137-20.482-7.479-28.091c-11.32-11.32-29.66-11.33-40.98-0.021
				c-0.01,0-0.02,0.01-0.03,0.021c-7.587,7.586-10.081,18.334-7.498,28.009C84.67,405.502,87.156,401.033,90.867,397.323z"/>
			<linearGradient id="SVGID_19_" gradientUnits="userSpaceOnUse" x1="50.6099" y1="356.1851" x2="258.5" y2="356.1851">
				<stop  offset="0" style="stop-color:#9BABFC"/>
				<stop  offset="1" style="stop-color:#595BD2"/>
			</linearGradient>
			<path style="fill:url(#SVGID_19_);" d="M79,257.5c0-2.22-0.25-4.38-0.73-6.45L78.5,251l60,10l57.69,96.99h62.31V431l-0.06,2.03
				c-0.311-0.02-0.631-0.03-0.94-0.03c-15.81,0-28.65,12.65-28.98,28.37c-35.74-4.49-68.62-18.149-96.24-38.54
				c10.94-11.35,10.82-29.42-0.38-40.609c-11.32-11.32-29.66-11.33-40.98-0.021c-20.95-27.33-35.2-60.04-40.31-95.72
				C66.34,286.16,79,273.31,79,257.5z"/>
			<g>
				<linearGradient id="SVGID_20_" gradientUnits="userSpaceOnUse" x1="50.6099" y1="316.6001" x2="144.3203" y2="316.6001">
					<stop  offset="0" style="stop-color:#595BD2"/>
					<stop  offset="1" style="stop-color:#9BABFC"/>
				</linearGradient>
				<path style="fill:url(#SVGID_20_);" d="M60.261,296.904c15.73-0.32,28.39-13.17,28.39-28.98c0-2.22-0.25-4.38-0.73-6.449
					l0.23-0.051l56.169,9.361L138.5,261l-60-10l-0.23,0.05c0.48,2.07,0.73,4.23,0.73,6.45c0,15.81-12.66,28.66-28.39,28.98
					c5.11,35.68,19.36,68.39,40.31,95.72c0.438-0.438,0.889-0.852,1.347-1.255C75.861,356.159,64.663,327.639,60.261,296.904z"/>
				<linearGradient id="SVGID_21_" gradientUnits="userSpaceOnUse" x1="199.6411" y1="363.2021" x2="258.5" y2="363.2021">
					<stop  offset="0" style="stop-color:#595BD2"/>
					<stop  offset="1" style="stop-color:#9BABFC"/>
				</linearGradient>
				<polygon style="fill:url(#SVGID_21_);" points="205.841,368.414 258.5,368.414 258.5,357.99 199.641,357.99 				"/>
				<linearGradient id="SVGID_22_" gradientUnits="userSpaceOnUse" x1="132.2798" y1="409.8457" x2="150.0424" y2="409.8457">
					<stop  offset="0" style="stop-color:#595BD2"/>
					<stop  offset="1" style="stop-color:#9BABFC"/>
				</linearGradient>
				<path style="fill:url(#SVGID_22_);" d="M143.999,430.855c8.801-11.372,7.993-27.78-2.448-38.211
					c-1.458-1.459-3.035-2.726-4.697-3.809c5.926,10.848,4.402,24.682-4.575,33.994C136.085,425.64,140,428.308,143.999,430.855z"/>
			</g>
			<linearGradient id="SVGID_23_" gradientUnits="userSpaceOnUse" x1="258.4404" y1="358.7651" x2="458.8301" y2="358.7651">
				<stop  offset="0" style="stop-color:#9BABFC"/>
				<stop  offset="1" style="stop-color:#595BD2"/>
			</linearGradient>
			<path style="fill:url(#SVGID_23_);" d="M458.83,283.32c-4.48,35.16-17.84,67.54-37.73,94.85c-11.39-9.35-28.239-8.71-38.88,1.931
				c-10.859,10.859-11.3,28.18-1.33,39.569c-26.93,20.96-59.199,35.37-94.43,40.86c-0.74-15.02-12.93-27.03-28.02-27.5l0.06-2.03
				v-73.01h54.31L371.12,257l61.88,0.2l0.12-0.01C434.38,270.891,445.19,281.851,458.83,283.32z"/>
			<g>
				<linearGradient id="SVGID_24_" gradientUnits="userSpaceOnUse" x1="280.7041" y1="452.5728" x2="294.0127" y2="452.5728">
					<stop  offset="0" style="stop-color:#595BD2"/>
					<stop  offset="1" style="stop-color:#9BABFC"/>
				</linearGradient>
				<path style="fill:url(#SVGID_24_);" d="M280.704,444.615c3.362,4.479,5.462,9.958,5.756,15.915
					c2.535-0.396,5.05-0.85,7.553-1.336C291.415,452.918,286.675,447.757,280.704,444.615z"/>
				<linearGradient id="SVGID_25_" gradientUnits="userSpaceOnUse" x1="448.5273" y1="284.2597" x2="458.8301" y2="284.2597">
					<stop  offset="0" style="stop-color:#595BD2"/>
					<stop  offset="1" style="stop-color:#9BABFC"/>
				</linearGradient>
				<path style="fill:url(#SVGID_25_);" d="M458.105,288.361c0.256-1.676,0.51-3.353,0.725-5.041
					c-3.689-0.397-7.16-1.509-10.303-3.162C451.074,283.547,454.34,286.355,458.105,288.361z"/>
				<linearGradient id="SVGID_26_" gradientUnits="userSpaceOnUse" x1="258.4404" y1="346.0293" x2="435.165" y2="346.0293">
					<stop  offset="0" style="stop-color:#595BD2"/>
					<stop  offset="1" style="stop-color:#9BABFC"/>
				</linearGradient>
				<path style="fill:url(#SVGID_26_);" d="M268.211,366.266h54.31l58.311-100.99l54.334,0.176
					c-1.061-2.592-1.778-5.359-2.045-8.261L433,257.2l-61.88-0.2l-58.31,100.99H258.5V431l-0.06,2.03
					c3.442,0.107,6.732,0.821,9.771,2.028V366.266z"/>
			</g>
			<linearGradient id="SVGID_27_" gradientUnits="userSpaceOnUse" x1="252.6099" y1="155.1104" x2="458.1504" y2="155.1104">
				<stop  offset="0" style="stop-color:#9BABFC"/>
				<stop  offset="1" style="stop-color:#595BD2"/>
			</linearGradient>
			<path style="fill:url(#SVGID_27_);" d="M380.1,129.78c10.45,10.46,26.9,11.25,38.28,2.399c20.44,26.801,34.47,58.75,39.771,93.58
				C443.95,227.65,433,239.79,433,254.5c0,0.91,0.04,1.8,0.12,2.69L433,257.2l-61.88-0.2l-58.31-101h-59.43l-0.77-77.07
				c0.62,0.051,1.25,0.07,1.89,0.07c15,0,27.33-11.38,28.84-25.979c34.97,4.899,67.13,18.569,94.17,38.72
				C368.86,103.11,369.72,119.4,380.1,129.78z"/>
			<g>
				<g>
					<g>
						<linearGradient id="SVGID_28_" gradientUnits="userSpaceOnUse" x1="252.6099" y1="167.958" x2="433.3242" y2="167.958">
							<stop  offset="0" style="stop-color:#595BD2"/>
							<stop  offset="1" style="stop-color:#9BABFC"/>
						</linearGradient>
						<path style="fill:url(#SVGID_28_);" d="M433.324,250.182L377.011,250L318.7,149h-59.43l-0.703-70.284
							C257.238,78.902,255.881,79,254.5,79c-0.64,0-1.27-0.02-1.89-0.07l0.77,77.07h59.43l58.31,101l61.88,0.2l0.12-0.01
							c-0.08-0.891-0.12-1.78-0.12-2.69C433,253.032,433.113,251.591,433.324,250.182z"/>
					</g>
					<g>
						<linearGradient id="SVGID_29_" gradientUnits="userSpaceOnUse" x1="279.3555" y1="58.9756" x2="287.3652" y2="58.9756">
							<stop  offset="0" style="stop-color:#595BD2"/>
							<stop  offset="1" style="stop-color:#9BABFC"/>
						</linearGradient>
						<path style="fill:url(#SVGID_29_);" d="M287.365,53.65c-1.341-0.215-2.677-0.441-4.025-0.63
							c-0.447,4.324-1.85,8.363-3.984,11.91C282.861,61.896,285.633,58.037,287.365,53.65z"/>
					</g>
					<g>
						<linearGradient id="SVGID_30_" gradientUnits="userSpaceOnUse" x1="443.0254" y1="226.5498" x2="458.1504" y2="226.5498">
							<stop  offset="0" style="stop-color:#595BD2"/>
							<stop  offset="1" style="stop-color:#9BABFC"/>
						</linearGradient>
						<path style="fill:url(#SVGID_30_);" d="M443.025,232.577c4.17-3.61,9.381-6.053,15.125-6.817
							c-0.268-1.755-0.572-3.497-0.883-5.237C451.296,222.875,446.295,227.145,443.025,232.577z"/>
					</g>
				</g>
			</g>
			<linearGradient id="SVGID_31_" gradientUnits="userSpaceOnUse" x1="50.4702" y1="205.5054" x2="371.1201" y2="205.5054">
				<stop  offset="0" style="stop-color:#736BD9"/>
				<stop  offset="1" style="stop-color:#5F5BD0"/>
			</linearGradient>
			<path style="fill:url(#SVGID_31_);" d="M202.63,216.39c3.61,3.62,9.47,3.62,13.09,0c3.61-3.609,3.61-9.47,0-13.09
				c-3.62-3.609-9.48-3.609-13.09,0C199.01,206.92,199.01,212.78,202.63,216.39z M295.61,215.72c3.609,3.61,9.47,3.61,13.08,0
				c3.619-3.62,3.619-9.479,0-13.09c-3.61-3.62-9.471-3.62-13.08,0C291.99,206.24,291.99,212.1,295.61,215.72z M296.28,308.69
				c3.62,3.62,9.479,3.62,13.09,0c3.62-3.61,3.62-9.47,0-13.08c-3.61-3.62-9.47-3.62-13.09,0
				C292.67,299.221,292.67,305.08,296.28,308.69z M246.27,190.25c0,5.12,4.14,9.26,9.25,9.26c5.11,0,9.26-4.14,9.26-9.26
				c0-5.11-4.15-9.25-9.26-9.25C250.41,181,246.27,185.14,246.27,190.25z M190.25,265.73c5.12,0,9.26-4.141,9.26-9.25
				c0-5.11-4.14-9.261-9.26-9.261c-5.11,0-9.25,4.15-9.25,9.261C181,261.59,185.14,265.73,190.25,265.73z M312.49,255.52
				c0,5.109,4.14,9.26,9.26,9.26c5.11,0,9.25-4.15,9.25-9.26c0-5.11-4.14-9.25-9.25-9.25C316.63,246.27,312.49,250.41,312.49,255.52
				z M256.48,331c5.11,0,9.25-4.14,9.25-9.26c0-5.11-4.141-9.25-9.25-9.25c-5.11,0-9.26,4.14-9.26,9.25
				C247.22,326.86,251.37,331,256.48,331z M203.31,309.37c3.61,3.62,9.47,3.62,13.08,0c3.62-3.609,3.62-9.47,0-13.09
				c-3.61-3.61-9.47-3.61-13.08,0C199.69,299.9,199.69,305.761,203.31,309.37z M253.38,156h59.43l58.31,101l-58.31,100.99H258.5
				h-62.31L138.5,261l-60-10l-0.23,0.05c-2.89-12.77-14.21-22.319-27.8-22.54c4.91-35.52,18.88-68.149,39.5-95.479
				c11.39,10.18,28.88,9.809,39.81-1.13c10.92-10.91,11.31-28.37,1.18-39.75c27.15-20.38,59.5-34.2,94.7-39.13
				C227.11,67,238.48,78.03,252.61,78.93L253.38,156z M288.5,254c0-18.23-14.33-33-32-33s-32,14.77-32,33c0,18.221,14.33,33,32,33
				S288.5,272.221,288.5,254z"/>
			<g>
				<linearGradient id="SVGID_32_" gradientUnits="userSpaceOnUse" x1="239.0977" y1="265.2754" x2="297.2051" y2="265.2754">
					<stop  offset="0" style="stop-color:#5F5BD0"/>
					<stop  offset="1" style="stop-color:#736BD9"/>
				</linearGradient>
				<path style="fill:url(#SVGID_32_);" d="M282.609,234.933c3.705,5.385,5.891,11.96,5.891,19.067c0,18.221-14.33,33-32,33
					c-6.419,0-12.392-1.958-17.402-5.315c5.798,8.427,15.328,13.933,26.107,13.933c17.67,0,32-14.779,32-32.999
					C297.205,251.012,291.391,240.814,282.609,234.933z"/>
				<linearGradient id="SVGID_33_" gradientUnits="userSpaceOnUse" x1="50.4702" y1="141.6929" x2="228.3726" y2="141.6929">
					<stop  offset="0" style="stop-color:#5F5BD0"/>
					<stop  offset="1" style="stop-color:#736BD9"/>
				</linearGradient>
				<path style="fill:url(#SVGID_33_);" d="M98.675,141.648c11.39,10.18,28.88,9.81,39.81-1.13c10.92-10.91,11.31-28.37,1.18-39.75
					c25.601-19.218,55.829-32.594,88.708-38.192c-1.419-2.943-2.36-6.161-2.712-9.556c-35.2,4.93-67.55,18.75-94.7,39.13
					c10.13,11.38,9.74,28.84-1.18,39.75c-10.93,10.939-28.42,11.31-39.81,1.13c-20.62,27.33-34.59,59.96-39.5,95.479
					c3.431,0.056,6.715,0.709,9.757,1.855C65.897,197.467,79.371,167.234,98.675,141.648z"/>
				<linearGradient id="SVGID_34_" gradientUnits="userSpaceOnUse" x1="261.999" y1="160.3091" x2="317.7852" y2="160.3091">
					<stop  offset="0" style="stop-color:#5F5BD0"/>
					<stop  offset="1" style="stop-color:#736BD9"/>
				</linearGradient>
				<polygon style="fill:url(#SVGID_34_);" points="262.085,164.618 317.785,164.618 312.81,156 261.999,156 				"/>
			</g>
			<path style="fill:#0F0038;" d="M321.75,246.27c5.11,0,9.25,4.14,9.25,9.25c0,5.109-4.14,9.26-9.25,9.26
				c-5.12,0-9.26-4.15-9.26-9.26C312.49,250.41,316.63,246.27,321.75,246.27z"/>
			<path style="fill:#0F0038;" d="M309.37,295.61c3.62,3.61,3.62,9.47,0,13.08c-3.61,3.62-9.47,3.62-13.09,0
				c-3.61-3.61-3.61-9.47,0-13.08C299.9,291.99,305.76,291.99,309.37,295.61z"/>
			<path style="fill:#0F0038;" d="M308.69,215.72c-3.61,3.61-9.471,3.61-13.08,0c-3.62-3.62-3.62-9.479,0-13.09
				c3.609-3.62,9.47-3.62,13.08,0C312.31,206.24,312.31,212.1,308.69,215.72z"/>
			<path style="fill:#0F0038;" d="M256.48,312.49c5.11,0,9.25,4.14,9.25,9.25c0,5.12-4.141,9.26-9.25,9.26
				c-5.11,0-9.26-4.14-9.26-9.26C247.22,316.63,251.37,312.49,256.48,312.49z"/>
			<path style="fill:#0F0038;" d="M255.52,181c5.11,0,9.26,4.14,9.26,9.25c0,5.12-4.15,9.26-9.26,9.26c-5.11,0-9.25-4.14-9.25-9.26
				C246.27,185.14,250.41,181,255.52,181z"/>
			<path style="fill:#0F0038;" d="M216.39,309.37c-3.61,3.62-9.47,3.62-13.08,0c-3.62-3.609-3.62-9.47,0-13.09
				c3.61-3.61,9.47-3.61,13.08,0C220.01,299.9,220.01,305.761,216.39,309.37z"/>
			<path style="fill:#0F0038;" d="M215.72,216.39c-3.62,3.62-9.48,3.62-13.09,0c-3.62-3.609-3.62-9.47,0-13.09
				c3.61-3.609,9.47-3.609,13.09,0C219.33,206.92,219.33,212.78,215.72,216.39z"/>
			<path style="fill:#0F0038;" d="M190.25,247.22c5.12,0,9.26,4.15,9.26,9.261c0,5.109-4.14,9.25-9.26,9.25
				c-5.11,0-9.25-4.141-9.25-9.25C181,251.37,185.14,247.22,190.25,247.22z"/>
			<path style="fill:#0F0038;" d="M421.096,383.17c-1.022,0-2.051-0.311-2.939-0.958c-2.232-1.626-2.724-4.754-1.099-6.985
				c19.84-27.239,32.569-59.238,36.813-92.538c0.349-2.738,2.845-4.674,5.592-4.328c2.739,0.35,4.677,2.852,4.328,5.592
				c-4.456,34.967-17.82,68.565-38.648,97.161C424.163,382.457,422.64,383.17,421.096,383.17z"/>
			<path style="fill:#0F0038;" d="M286.454,465.531c-2.422,0-4.55-1.764-4.935-4.232c-0.425-2.729,1.442-5.285,4.171-5.71
				c33.462-5.215,65.319-19,92.128-39.865c2.181-1.698,5.322-1.305,7.017,0.874c1.696,2.18,1.305,5.321-0.874,7.017
				c-28.145,21.906-61.595,36.38-96.731,41.855C286.969,465.512,286.71,465.531,286.454,465.531z"/>
			<path style="fill:#0F0038;" d="M228.526,466.371c-0.208,0-0.418-0.014-0.629-0.04c-35.565-4.468-69.655-18.119-98.587-39.479
				c-2.222-1.64-2.693-4.771-1.053-6.992c1.64-2.223,4.771-2.695,6.992-1.053c27.557,20.344,60.025,33.347,93.894,37.602
				c2.74,0.344,4.682,2.845,4.338,5.584C233.164,464.522,231.01,466.371,228.526,466.371z"/>
			<path style="fill:#0F0038;" d="M90.923,387.2c-1.502,0-2.987-0.674-3.972-1.958c-21.921-28.598-36.2-62.504-41.292-98.053
				c-0.391-2.733,1.507-5.267,4.241-5.658c2.732-0.403,5.267,1.507,5.659,4.24c4.849,33.854,18.448,66.147,39.329,93.387
				c1.68,2.191,1.265,5.33-0.926,7.011C93.054,386.864,91.985,387.2,90.923,387.2z"/>
			<path style="fill:#0F0038;" d="M50.477,233.511c-0.228,0-0.458-0.016-0.691-0.048c-2.735-0.378-4.646-2.902-4.268-5.638
				c4.891-35.385,18.882-69.205,40.462-97.807c1.662-2.205,4.798-2.645,7.002-0.98c2.205,1.663,2.644,4.798,0.98,7.002
				c-20.554,27.243-33.88,59.455-38.538,93.153C55.077,231.698,52.934,233.511,50.477,233.511z"/>
			<path style="fill:#0F0038;" d="M130.964,97.15c-1.52,0-3.021-0.689-4.003-1.999c-1.658-2.208-1.211-5.342,0.997-7
				c28.389-21.311,61.934-35.171,97.008-40.083c2.728-0.38,5.262,1.523,5.645,4.259c0.383,2.734-1.523,5.262-4.258,5.645
				c-33.403,4.679-65.352,17.88-92.392,38.177C133.062,96.824,132.008,97.15,130.964,97.15z"/>
			<path style="fill:#0F0038;" d="M377.506,96.74c-1.039,0-2.087-0.322-2.983-0.991c-26.927-20.064-58.696-33.128-91.876-37.777
				c-2.735-0.383-4.642-2.91-4.258-5.646c0.383-2.734,2.903-4.642,5.645-4.258c34.839,4.882,68.195,18.597,96.464,39.662
				c2.215,1.65,2.672,4.783,1.021,6.997C380.537,96.045,379.031,96.74,377.506,96.74z"/>
			<path style="fill:#0F0038;" d="M458.145,230.761c-2.43,0-4.56-1.773-4.938-4.248c-5.027-33.038-18.445-64.609-38.803-91.301
				c-1.675-2.195-1.252-5.333,0.943-7.008c2.197-1.675,5.334-1.25,7.008,0.943c21.371,28.021,35.458,61.169,40.738,95.86
				c0.415,2.73-1.461,5.28-4.191,5.695C458.647,230.742,458.395,230.761,458.145,230.761z"/>
			<path style="fill:#0F0038;" d="M254.5,84c-0.825,0-1.575-0.028-2.294-0.087c-16.511-1.051-29.803-13.828-31.519-30.377
				c-0.122-1.099-0.187-2.301-0.187-3.536c0-18.747,15.252-34,34-34c18.748,0,34,15.253,34,34c0,1.235-0.065,2.438-0.191,3.574
				C286.518,70.903,271.98,84,254.5,84z M254.5,26c-13.233,0-24,10.767-24,24c0,0.866,0.043,1.696,0.129,2.467
				c1.215,11.713,10.591,20.727,22.298,21.474c0.534,0.042,1.02,0.06,1.572,0.06c12.339,0,22.6-9.24,23.866-21.494
				c0.09-0.81,0.134-1.64,0.134-2.506C278.5,36.767,267.733,26,254.5,26z"/>
			<path style="fill:#0F0038;" d="M257.5,496c-18.748,0-34-15.252-34-34c0-0.269,0.01-0.537,0.022-0.806
				C223.945,442.885,239.173,428,257.5,428c0.386,0,0.784,0.013,1.173,0.035c17.526,0.586,31.918,14.736,32.781,32.249
				c0.033,0.531,0.046,1.124,0.046,1.716C291.5,480.748,276.248,496,257.5,496z M257.5,438c-12.952,0-23.71,10.531-23.981,23.475
				c-0.001,0.047-0.003,0.093-0.005,0.14c-0.006,0.129-0.014,0.257-0.014,0.386c0,13.233,10.767,24,24,24c13.233,0,24-10.767,24-24
				c0-0.387-0.007-0.774-0.03-1.161c-0.613-12.433-10.796-22.426-23.185-22.811c-0.053-0.002-0.105-0.005-0.159-0.008
				C257.92,438.008,257.706,438,257.5,438z"/>
			<path style="fill:#0F0038;" d="M400.59,143.27c-0.001,0-0.001,0-0.002,0c-9.079,0-17.611-3.536-24.025-9.957
				c-11.967-11.966-13.271-31.142-3.032-44.601c0.952-1.257,1.981-2.436,3.051-3.495c6.401-6.406,14.938-9.945,24.021-9.945
				c9.081,0,17.62,3.538,24.044,9.962c13.256,13.256,13.256,34.825,0,48.081c-0.978,0.979-2.055,1.926-3.2,2.814
				C415.526,140.733,408.117,143.27,400.59,143.27z M400.602,85.272c-6.409,0-12.435,2.497-16.965,7.032
				c-0.754,0.746-1.469,1.566-2.142,2.455c-7.23,9.505-6.308,23.037,2.14,31.484c4.527,4.531,10.548,7.026,16.953,7.026
				c0.001,0,0.002,0,0.002,0c5.316,0,10.543-1.789,14.721-5.037c0.819-0.637,1.58-1.305,2.265-1.989
				c9.356-9.356,9.356-24.581,0-33.938C413.039,87.771,407.012,85.272,400.602,85.272z"/>
			<path style="fill:#0F0038;" d="M111.399,436.728c-9.081,0-17.62-3.537-24.044-9.962c-13.252-13.263-13.251-34.831,0.001-48.081
				c0.063-0.063,0.128-0.125,0.195-0.185c6.396-6.306,14.854-9.775,23.845-9.775c9.08,0,17.617,3.537,24.041,9.961
				c13.003,12.99,13.217,34.319,0.484,47.573c-0.154,0.166-0.32,0.343-0.484,0.507C129.018,433.19,120.481,436.728,111.399,436.728z
				 M94.282,385.9c-9.21,9.364-9.161,24.481,0.145,33.796c4.534,4.534,10.562,7.031,16.972,7.031c6.409,0,12.434-2.497,16.964-7.031
				c0.083-0.083,0.164-0.172,0.239-0.254c0.025-0.027,0.052-0.055,0.078-0.082c9.013-9.351,8.873-24.425-0.314-33.603
				c-4.536-4.536-10.563-7.033-16.971-7.033c-6.398,0-12.414,2.49-16.941,7.013C94.398,385.793,94.341,385.848,94.282,385.9z"/>
			<path style="fill:#0F0038;" d="M462,288.5c-1.262,0-2.522-0.071-3.743-0.213c-15.96-1.72-28.642-14.606-30.115-30.639
				c-0.096-1.06-0.142-2.086-0.142-3.148c0-16.972,12.679-31.458,29.49-33.696c1.49-0.201,3.011-0.304,4.51-0.304
				c18.748,0,34,15.253,34,34C496,273.248,480.748,288.5,462,288.5z M462,230.5c-1.054,0-2.124,0.072-3.182,0.215
				C446.946,232.296,438,242.52,438,254.5c0,0.761,0.033,1.494,0.1,2.242c1.039,11.3,9.983,20.392,21.267,21.606
				c0.88,0.102,1.754,0.151,2.634,0.151c13.233,0,24-10.767,24-24S475.233,230.5,462,230.5z"/>
			<path style="fill:#0F0038;" d="M50,291.5c-18.748,0-34-15.252-34-34s15.252-34,34-34c0.134,0,0.263,0.004,0.393,0.008
				c0.027,0,0.132,0.002,0.159,0.003c15.727,0.255,29.13,11.126,32.595,26.436C83.711,252.379,84,254.929,84,257.5
				c0,18.338-14.895,33.565-33.216,33.978C50.525,291.49,50.257,291.5,50,291.5z M50.073,233.503
				C36.763,233.503,26,244.268,26,257.5c0,13.233,10.767,24,24,24c0.12,0,0.246-0.008,0.365-0.014
				c0.048-0.002,0.095-0.004,0.143-0.005C63.461,281.218,74,270.46,74,257.5c0-1.811-0.202-3.602-0.601-5.32
				c-2.45-10.823-11.91-18.49-23.01-18.67c-0.053-0.001-0.183-0.003-0.312-0.007C50.077,233.503,50.074,233.503,50.073,233.503z"/>
			<path style="fill:#0F0038;" d="M109.285,145.395C109.284,145.395,109.285,145.395,109.285,145.395
				c-8.373,0-16.415-3.067-22.646-8.638c-0.457-0.4-0.937-0.854-1.404-1.322c-6.423-6.418-9.962-14.955-9.962-24.037
				c0-9.081,3.538-17.62,9.962-24.044c6.418-6.424,14.956-9.962,24.04-9.962s17.623,3.538,24.042,9.963
				c0.482,0.482,0.943,0.978,1.391,1.485c11.938,13.409,11.331,33.884-1.394,46.597C126.9,141.857,118.364,145.395,109.285,145.395z
				 M109.275,87.393c-6.412,0-12.437,2.497-16.968,7.031c-4.537,4.537-7.035,10.564-7.035,16.975c0,6.409,2.497,12.435,7.032,16.965
				c0.314,0.314,0.635,0.62,0.964,0.908c4.43,3.96,10.106,6.124,16.016,6.124c6.407,0,12.43-2.496,16.959-7.029
				c8.983-8.975,9.413-23.421,0.982-32.892c-0.325-0.367-0.644-0.713-0.981-1.049C121.712,89.89,115.687,87.393,109.275,87.393z"/>
			<path style="fill:#0F0038;" d="M402.725,434.601c-9.083,0-17.621-3.535-24.04-9.955c-0.544-0.543-1.065-1.106-1.593-1.723
				c-11.701-13.368-11.018-33.748,1.593-46.358c6.421-6.421,14.958-9.957,24.038-9.957c7.85,0,15.503,2.733,21.55,7.697
				c0.874,0.719,1.713,1.479,2.493,2.26c6.424,6.417,9.962,14.954,9.962,24.036c0,9.081-3.538,17.62-9.961,24.044
				C420.347,431.065,411.809,434.601,402.725,434.601z M402.723,376.608c-6.409,0-12.436,2.495-16.968,7.027
				c-8.898,8.899-9.384,23.281-1.103,32.741c0.394,0.459,0.743,0.838,1.103,1.198c4.531,4.53,10.558,7.025,16.97,7.025
				c6.413,0,12.44-2.495,16.971-7.025c4.534-4.535,7.032-10.564,7.032-16.974c0-6.409-2.497-12.434-7.031-16.964
				c-0.561-0.563-1.141-1.087-1.772-1.605C413.664,378.535,408.265,376.608,402.723,376.608z"/>
			<path style="fill:#0F0038;" d="M312.81,362.99H196.19c-1.763,0-3.396-0.929-4.297-2.444l-57.69-96.99
				c-1.412-2.373-0.632-5.441,1.741-6.854c2.374-1.411,5.442-0.632,6.854,1.742l56.236,94.546h110.889L365.347,257l-55.424-96
				H196.19c-2.761,0-5-2.238-5-5c0-2.761,2.239-5,5-5h116.62c1.786,0,3.436,0.953,4.33,2.5l58.311,101
				c0.894,1.547,0.894,3.454,0,5.001L317.14,360.49C316.246,362.037,314.596,362.99,312.81,362.99z"/>
			<path style="fill:#0F0038;" d="M138.506,266.001c-0.273,0-0.549-0.023-0.828-0.069l-60-9.999c-2.724-0.454-4.564-3.03-4.11-5.754
				c0.454-2.724,3.029-4.561,5.754-4.11l60,9.999c2.724,0.454,4.564,3.03,4.11,5.755
				C143.024,264.268,140.906,266.001,138.506,266.001z"/>
			<path style="fill:#0F0038;" d="M433,262.2c-0.005,0-0.011,0-0.017,0l-61.88-0.2c-2.761-0.009-4.992-2.254-4.983-5.016
				c0.009-2.756,2.246-4.984,5-4.984c0.005,0,0.011,0,0.017,0l61.88,0.2c2.761,0.009,4.992,2.255,4.983,5.016
				C437.991,259.973,435.754,262.2,433,262.2z"/>
			<path style="fill:#0F0038;" d="M258.5,436c-2.761,0-5-2.238-5-5v-73.01c0-2.762,2.239-5,5-5c2.762,0,5,2.238,5,5V431
				C263.5,433.762,261.262,436,258.5,436z"/>
			<path style="fill:#0F0038;" d="M253.379,161c-2.738,0-4.971-2.205-4.999-4.95l-0.77-77.07c-0.028-2.761,2.188-5.021,4.95-5.05
				c0.017,0,0.034,0,0.051,0c2.738,0,4.971,2.206,4.999,4.95l0.77,77.07c0.027,2.762-2.189,5.023-4.95,5.05
				C253.413,161,253.395,161,253.379,161z"/>
			<path style="fill:#0F0038;" d="M256.5,292c-20.402,0-37-17.047-37-38s16.598-38,37-38c20.402,0,37,17.047,37,38
				S276.902,292,256.5,292z M256.5,226c-14.888,0-27,12.561-27,28s12.112,28,27,28c14.888,0,27-12.56,27-28S271.388,226,256.5,226z"
				/>
		</g>
	</g>
</g>
<g id="Layer_1">
</g>
</svg>
